<svg id="svg" version="1.1" xmlns="http://www.w3.org/2000/svg">
  <symbol id="svg-github" viewBox="0 0 20 20">
    <path fill="currentColor" d="M10 0.247c-5.522 0-10 4.477-10 10 0 4.418 2.865 8.167 6.839 9.489 0.5 0.093 0.683-0.217 0.683-0.481 0-0.238-0.009-1.026-0.014-1.862-2.782 0.605-3.369-1.18-3.369-1.18-0.455-1.156-1.11-1.463-1.11-1.463-0.907-0.621 0.069-0.608 0.069-0.608 1.004 0.071 1.533 1.031 1.533 1.031 0.892 1.529 2.339 1.087 2.91 0.831 0.090-0.646 0.349-1.087 0.635-1.337-2.221-0.253-4.556-1.11-4.556-4.942 0-1.092 0.391-1.984 1.030-2.684-0.104-0.252-0.446-1.269 0.097-2.646 0 0 0.84-0.269 2.751 1.025 0.798-0.222 1.653-0.333 2.503-0.337 0.85 0.004 1.706 0.115 2.505 0.337 1.909-1.294 2.747-1.025 2.747-1.025 0.544 1.378 0.202 2.395 0.098 2.646 0.641 0.7 1.029 1.592 1.029 2.684 0 3.841-2.339 4.687-4.566 4.934 0.359 0.31 0.678 0.919 0.678 1.852 0 1.338-0.012 2.415-0.012 2.744 0 0.266 0.18 0.578 0.687 0.48 3.971-1.324 6.833-5.071 6.833-9.488 0-5.523-4.477-10-10-10z"></path>
  </symbol>
  <symbol id="spec-up-icon-github" viewBox="0 0 20 20">
    <path fill="currentColor" d="M10 0.247c-5.522 0-10 4.477-10 10 0 4.418 2.865 8.167 6.839 9.489 0.5 0.093 0.683-0.217 0.683-0.481 0-0.238-0.009-1.026-0.014-1.862-2.782 0.605-3.369-1.18-3.369-1.18-0.455-1.156-1.11-1.463-1.11-1.463-0.907-0.621 0.069-0.608 0.069-0.608 1.004 0.071 1.533 1.031 1.533 1.031 0.892 1.529 2.339 1.087 2.91 0.831 0.090-0.646 0.349-1.087 0.635-1.337-2.221-0.253-4.556-1.11-4.556-4.942 0-1.092 0.391-1.984 1.030-2.684-0.104-0.252-0.446-1.269 0.097-2.646 0 0 0.84-0.269 2.751 1.025 0.798-0.222 1.653-0.333 2.503-0.337 0.85 0.004 1.706 0.115 2.505 0.337 1.909-1.294 2.747-1.025 2.747-1.025 0.544 1.378 0.202 2.395 0.098 2.646 0.641 0.7 1.029 1.592 1.029 2.684 0 3.841-2.339 4.687-4.566 4.934 0.359 0.31 0.678 0.919 0.678 1.852 0 1.338-0.012 2.415-0.012 2.744 0 0.266 0.18 0.578 0.687 0.48 3.971-1.324 6.833-5.071 6.833-9.488 0-5.523-4.477-10-10-10z"></path>
  </symbol>
  <symbol id="svg-nested-list" viewBox="0 0 37 32">
    <path d="M0 2.286c0-1.262 1.023-2.286 2.286-2.286s2.286 1.023 2.286 2.286c0 1.262-1.023 2.286-2.286 2.286s-2.286-1.023-2.286-2.286zM9.143 0h27.429v4.571h-27.429zM9.143 11.429c0-1.262 1.023-2.286 2.286-2.286s2.286 1.023 2.286 2.286c0 1.262-1.023 2.286-2.286 2.286s-2.286-1.023-2.286-2.286zM18.286 9.143h18.286v4.571h-18.286zM9.143 29.714c0-1.262 1.023-2.286 2.286-2.286s2.286 1.023 2.286 2.286c0 1.262-1.023 2.286-2.286 2.286s-2.286-1.023-2.286-2.286zM18.286 27.429h18.286v4.571h-18.286zM18.286 20.571c0-1.262 1.023-2.286 2.286-2.286s2.286 1.023 2.286 2.286c0 1.262-1.023 2.286-2.286 2.286s-2.286-1.023-2.286-2.286zM27.429 18.286h9.143v4.571h-9.143z"></path>
  </symbol>
  <symbol id="spec-up-icon-bars" viewBox="0 0 24 24">
    <rect x="3" y="5" width="18" height="2" rx="1" fill="currentColor"></rect>
    <rect x="3" y="11" width="18" height="2" rx="1" fill="currentColor"></rect>
    <rect x="3" y="17" width="18" height="2" rx="1" fill="currentColor"></rect>
  </symbol>
  <symbol id="spec-up-icon-search" viewBox="0 0 24 24">
    <circle cx="11" cy="11" r="6" fill="none" stroke="currentColor" stroke-width="2" stroke-linecap="round" stroke-linejoin="round"></circle>
    <path d="M16 16l4.5 4.5" fill="none" stroke="currentColor" stroke-width="2" stroke-linecap="round"></path>
  </symbol>
  <symbol id="spec-up-icon-sun" viewBox="0 0 24 24">
    <circle cx="12" cy="12" r="4" fill="none" stroke="currentColor" stroke-width="2"></circle>
    <path d="M12 2.5v2.5M12 19v2.5M4.5 12H2m20 0h-2.5M5.6 5.6l1.8 1.8M16.6 16.6l1.8 1.8M18.4 5.6l-1.8 1.8M7.4 16.6l-1.8 1.8" fill="none" stroke="currentColor" stroke-width="2" stroke-linecap="round"></path>
  </symbol>
  <symbol id="spec-up-icon-moon" viewBox="0 0 24 24">
    <path d="M19.5 14.25A8.25 8.25 0 0 1 9.75 4.5a8.27 8.27 0 0 0 4.5 15.18 8.2 8.2 0 0 0 5.25-1.88z" fill="none" stroke="currentColor" stroke-width="2" stroke-linejoin="round"></path>
  </symbol>
  <symbol id="spec-up-icon-circle-info" viewBox="0 0 24 24">
    <circle cx="12" cy="12" r="9" fill="none" stroke="currentColor" stroke-width="2"></circle>
    <circle cx="12" cy="8" r="1.25" fill="currentColor"></circle>
    <path d="M12 11v5" fill="none" stroke="currentColor" stroke-width="2" stroke-linecap="round"></path>
  </symbol>
  <symbol id="spec-up-icon-circle-exclamation" viewBox="0 0 24 24">
    <circle cx="12" cy="12" r="9" fill="none" stroke="currentColor" stroke-width="2"></circle>
    <path d="M12 7v6" fill="none" stroke="currentColor" stroke-width="2" stroke-linecap="round"></path>
    <circle cx="12" cy="17" r="1.25" fill="currentColor"></circle>
  </symbol>
  <symbol id="spec-up-icon-triangle-exclamation" viewBox="0 0 24 24">
    <path d="M12 3.5l9 16a1 1 0 0 1-.87 1.5H3.87A1 1 0 0 1 3 19.5l9-16z" fill="none" stroke="currentColor" stroke-width="2" stroke-linejoin="round"></path>
    <path d="M12 9v5" fill="none" stroke="currentColor" stroke-width="2" stroke-linecap="round"></path>
    <circle cx="12" cy="17.25" r="1.1" fill="currentColor"></circle>
  </symbol>
  <symbol id="spec-up-icon-circle-check" viewBox="0 0 24 24">
    <circle cx="12" cy="12" r="9" fill="none" stroke="currentColor" stroke-width="2"></circle>
    <path d="M8 12.5l2.5 2.5 5.5-6" fill="none" stroke="currentColor" stroke-width="2" stroke-linecap="round" stroke-linejoin="round"></path>
  </symbol>
</svg>
